<?xml version="1.0" encoding="UTF-8"?>
<svg width="32px" height="32px" viewBox="0 0 32 32" version="1.1" xmlns="http://www.w3.org/2000/svg" xmlns:xlink="http://www.w3.org/1999/xlink">
    <title>Square 60x60 Copy 2</title>
    <defs>
        <linearGradient x1="40.1774089%" y1="89.6468099%" x2="56.438%" y2="13.4686667%" id="linearGradient-1">
            <stop stop-color="#3948BA" offset="0%"></stop>
            <stop stop-color="#4152D4" offset="47.6461493%"></stop>
            <stop stop-color="#495CEF" offset="100%"></stop>
        </linearGradient>
        <path d="M7.68061222,19.8500669 L8.96262322,15.5301205 L10.2342954,19.8500669 L12.0435851,19.8500669 L13.9149076,13.1499331 L12.1159567,13.1499331 L11.1027545,17.8447122 L9.6966779,13.1499331 L8.23890733,13.1499331 L6.86384715,17.7603748 L5.82996731,13.1499331 L4,13.1499331 L5.8713225,19.8500669 L7.68061222,19.8500669 Z M18.1781416,20 C18.7502217,20 19.2895624,19.8906738 19.7961635,19.6720214 C20.3027646,19.453369 20.7249322,19.1472557 21.0626663,18.7536814 L21.0626663,18.7536814 L19.9667537,17.7135207 C19.7599777,17.9946452 19.5032309,18.2148594 19.1965132,18.3741633 C18.8897955,18.5334672 18.5641234,18.6131191 18.2194967,18.6131191 C17.8197299,18.6131191 17.4699339,18.5240964 17.1701087,18.3460509 C16.8702836,18.1680054 16.6359375,17.9196787 16.4670704,17.601071 C16.2982034,17.2824632 16.2137699,16.9138777 16.2137699,16.4953146 C16.2137699,16.0767515 16.2982034,15.7097278 16.4670704,15.3942436 C16.6359375,15.0787595 16.8720067,14.8319946 17.1752781,14.6539491 C17.4785495,14.4759036 17.8266224,14.3868809 18.2194967,14.3868809 C18.5641234,14.3868809 18.8897955,14.4665328 19.1965132,14.6258367 C19.5032309,14.7851406 19.7599777,15.0053548 19.9667537,15.2864793 L19.9667537,15.2864793 L21.0626663,14.2463186 C20.7249322,13.8464971 20.3096571,13.538822 19.8168411,13.3232932 C19.324025,13.1077644 18.7915769,13 18.2194967,13 C17.4751033,13 16.8151433,13.1483713 16.2396169,13.4451138 C15.6640904,13.7418563 15.2143527,14.1526104 14.8904037,14.6773762 C14.5664547,15.2021419 14.4044801,15.8081214 14.4044801,16.4953146 C14.4044801,17.1825078 14.5647315,17.7900491 14.8852343,18.3179384 C15.205737,18.8458278 15.6503053,19.2581437 16.2189393,19.5548862 C16.7875732,19.8516287 17.4406406,20 18.1781416,20 Z M24.9810709,20 C25.5945062,20 26.1269544,19.912539 26.5784152,19.7376171 C27.0298761,19.5626952 27.3796721,19.3143686 27.6278033,18.9926372 C27.8759344,18.6709058 28,18.297635 28,17.8728246 C28,16.7233378 27.0867395,16.0142793 25.2602184,15.7456493 C24.7157084,15.6581883 24.3366191,15.5597947 24.1229506,15.4504685 C23.9092821,15.3411423 23.8024479,15.1865239 23.8024479,14.9866131 C23.8024479,14.7742079 23.907559,14.6102187 24.1177812,14.4946452 C24.3280034,14.3790718 24.6019816,14.3212851 24.9397157,14.3212851 C25.3394826,14.3212851 25.7116793,14.3993753 26.0563059,14.5555556 C26.4009325,14.7117358 26.6904189,14.9272646 26.924765,15.2021419 L26.924765,15.2021419 L28,14.1807229 C27.6622659,13.8183846 27.222867,13.5310129 26.6818032,13.3186078 C26.1407394,13.1062026 25.5565973,13 24.9293769,13 C24.3710818,13 23.8765426,13.087461 23.4457593,13.2623829 C23.0149761,13.4373048 22.6789651,13.6856314 22.4377265,14.0073628 C22.1964878,14.3290942 22.0758685,14.7117358 22.0758685,15.1552878 C22.0758685,16.2423025 22.9822365,16.9107541 24.7949725,17.1606426 C25.318805,17.2356091 25.694448,17.3355645 25.9219015,17.4605087 C26.1493551,17.5854529 26.2630819,17.7572512 26.2630819,17.9759036 C26.2630819,18.1883088 26.1528014,18.3569835 25.9322403,18.4819277 C25.7116793,18.6068719 25.4084079,18.669344 25.0224261,18.669344 C24.7398322,18.669344 24.4589616,18.630299 24.179814,18.5522088 C23.9006664,18.4741187 23.6456428,18.3632307 23.4147429,18.2195448 C23.1838431,18.075859 22.9994679,17.9134315 22.8616172,17.7322624 L22.8616172,17.7322624 L21.7553658,18.7536814 C22.12067,19.1535029 22.5841928,19.461178 23.1459342,19.6767068 C23.7076755,19.8922356 24.3193878,20 24.9810709,20 Z" id="path-2"></path>
    </defs>
    <g id="Page-1" stroke="none" stroke-width="1" fill="none" fill-rule="evenodd">
        <g id="Component-Studio-Icon-2" transform="translate(-560.000000, -249.000000)" fill-rule="nonzero">
            <g id="Square-60x60-Copy-2" transform="translate(560.000000, 249.000000)">
                <rect id="Rectangle" fill="url(#linearGradient-1)" x="0" y="0" width="32" height="32"></rect>
                <g id="WCS">
                    <use fill="#000000" xlink:href="#path-2"></use>
                    <use fill="#FFFFFF" xlink:href="#path-2"></use>
                </g>
            </g>
        </g>
    </g>
</svg>